# xmcd
#
# Track frame offsets:
#	150
#	12582
#	24318
#	41728
#	50811
#	65400
#	77019
#	90638
#	102570
#	120407
#	131608
#	142958
#	154763
#	167165
#	180431
#	190384
#	202614
#	213491
#	224561
#	237284
#	249074
#	262444
#	273508
#	286663
#	299314
#	311562
#	324611
#	336242
#
# Disc length: 4640 seconds
#
# Revision: 0
# Processed by: cddbd v1.5.1PL0 Copyright (c) Steve Scherf et al.
# Submitted via: dBpowerAMP V4.0
#
DISCID=a4121e1c
DTITLE=Hank Williams Sr. - Honky Tonk Hank
DYEAR=2004
DGENRE=Country
TTITLE0=Hank Williams - I Saw The Light
TTITLE1=Mansion On The Hill
TTITLE2=The Tramp On The Street
TTITLE3=Alone And Forsaken
TTITLE4=First Fall Of Snow
TTITLE5=If Your Lovin' Me Like I'm Lovin' You
TTITLE6=Stones That You Throw
TTITLE7=My Kajin Baby
TTITLE8=Cool Clear Water
TTITLE9=Your Crazy Heart
TTITLE10=Dear Brother, Mama Left Us This Morning
TTITLE11=Dear John
TTITLE12=Half as Much
TTITLE13=Hey Good Lookin'
TTITLE14=Honky Tonk Blues
TTITLE15=Howlin' At The Moon
TTITLE16=I'm Still In Love With You
TTITLE17=Lonesome Whistle Blowin'
TTITLE18=I Just Don't Like This Kind Of Livin'
TTITLE19=I Know I'd Still Want You
TTITLE20=If You've Got The Money Honey, I've Got The Time
TTITLE21=I'll Never Get Out Of This World Alive
TTITLE22=I'm Leavin' Now
TTITLE23=I'm So Lonesome I Could Cry
TTITLE24=I'm Sorry For You My Friend
TTITLE25=On The Bayou
TTITLE26=Kalija
TTITLE27=Lonesome Blues
EXTD=Hank Williams Sr. - Honky Tonk Hank
EXTT0=
EXTT1=
EXTT2=
EXTT3=
EXTT4=
EXTT5=
EXTT6=
EXTT7=
EXTT8=
EXTT9=
EXTT10=
EXTT11=
EXTT12=
EXTT13=
EXTT14=
EXTT15=
EXTT16=
EXTT17=
EXTT18=
EXTT19=
EXTT20=
EXTT21=
EXTT22=
EXTT23=
EXTT24=
EXTT25=
EXTT26=
EXTT27=
PLAYORDER=
